<svg xmlns="http://www.w3.org/2000/svg" width="26" height="26" id="star">
  <g transform="translate(0 -1026.362)">
    <circle cx="13" cy="1039.362" r="13" fill="#ffa40b"></circle>
    <path fill="#ff7712" d="M15.043 25.83a13 13 0 0 0 .166-.02 13 13 0 0 0 1.268-.285 13 13 0 0 0 1.234-.408 13 13 0 0 0 1.185-.531 13 13 0 0 0 1.127-.647 13 13 0 0 0 1.057-.755 13 13 0 0 0 .977-.858 13 13 0 0 0 .886-.951 13 13 0 0 0 .786-1.035 13 13 0 0 0 .68-1.108 13 13 0 0 0 .566-1.17 13 13 0 0 0 .392-1.074l-5.49-5.49c-.085-.03-.157-.06-.287-.092-.392-.096-.94-.182-1.504-.261l-.42-.06-4.625-4.624c-.055.07-.107.131-.178.244-.213.342-.464.836-.713 1.346-.248.51-.496 1.037-.72 1.472a7.78 7.78 0 0 1-.325.579c-.104.165-.178.298-.369.433-.19.136-.342.164-.533.21-.19.043-.41.081-.652.116-.486.071-1.067.134-1.631.203-.565.07-1.115.147-1.508.237-.13.03-.203.059-.289.088.05.075.092.142.178.244.16.189.37.41.603.642l2.172 2.172c.088.109.167.216.22.387.071.222.052.374.036.568a7.738 7.738 0 0 1-.09.655c-.083.482-.204 1.052-.312 1.609a16.19 16.19 0 0 0-.24 1.504c-.012.133-.008.21-.006.3l6.359 6.36z" color="#000" font-family="sans-serif" font-weight="400" style="line-height:normal;text-indent:0;text-align:start;text-decoration-line:none;text-decoration-style:solid;text-decoration-color:#000;text-transform:none;block-progression:tb;isolation:auto;mix-blend-mode:normal;marker:none" transform="translate(0 1026.362)"></path>
    <path fill="#fff" d="M78.795 1015.735c.05.074.098.137.162.255.195.355.423.868.648 1.397.225.53.448 1.077.652 1.53.102.225.198.427.294.599.095.172.164.31.34.453.176.143.317.174.495.224.178.049.382.09.609.131.454.081.997.155 1.524.235.528.081 1.041.17 1.408.268.122.033.19.064.27.095-.049.076-.089.145-.17.248-.249.313-.623.71-1.013 1.107-.39.399-.795.801-1.124 1.153-.165.176-.31.34-.43.492-.119.152-.218.267-.287.495-.07.227-.053.384-.041.585.012.2.039.426.074.676.07.498.174 1.087.267 1.662.093.575.175 1.138.203 1.552.009.136.003.217 0 .31-.08-.027-.153-.048-.268-.101-.347-.162-.807-.43-1.272-.713-.466-.284-.94-.582-1.348-.817a7.042 7.042 0 0 0-.559-.296c-.169-.077-.299-.145-.518-.147-.219 0-.35.064-.52.138-.17.075-.358.173-.563.286-.41.227-.89.518-1.36.793-.47.275-.932.534-1.282.69-.116.052-.188.071-.27.097-.001-.093-.006-.174.005-.31.034-.413.124-.975.226-1.548.101-.573.214-1.16.291-1.657a8.72 8.72 0 0 0 .084-.675c.015-.2.034-.357-.032-.586-.066-.229-.163-.345-.28-.5a7.74 7.74 0 0 0-.423-.499c-.323-.358-.723-.767-1.107-1.172a16.142 16.142 0 0 1-.995-1.125c-.081-.105-.12-.174-.167-.251.08-.03.149-.06.27-.091.369-.093.884-.172 1.413-.243.528-.071 1.072-.135 1.527-.208.228-.036.433-.075.611-.121s.32-.075.498-.215.25-.277.347-.447c.098-.17.197-.37.302-.594.21-.449.442-.992.675-1.518a17.34 17.34 0 0 1 .668-1.385c.066-.117.114-.179.166-.252z" color="#000" font-family="sans-serif" font-weight="400" overflow="visible" style="line-height:normal;text-indent:0;text-align:start;text-decoration-line:none;text-decoration-style:solid;text-decoration-color:#000;text-transform:none;block-progression:tb;isolation:auto;mix-blend-mode:normal;marker:none" transform="matrix(1.06795 0 0 .97117 -71.11 46.368)"></path>
  </g>
</svg>
